<?xml version="1.0" encoding="iso-8859-1"?>
<!-- Uploaded to: SVG Repo, www.svgrepo.com, Generator: SVG Repo Mixer Tools -->
<svg version="1.1" class="proj-icon" xmlns="http://www.w3.org/2000/svg" xmlns:xlink="http://www.w3.org/1999/xlink" 
	 viewBox="0 0 512 512" xml:space="preserve">
<rect x="57.806" style="fill:#3C5D76;" width="49.548" height="132.129"/>
<rect x="404.645" style="fill:#1E2E3B;" width="49.548" height="132.129"/>
<rect x="231.226" style="fill:#3C5D76;" width="49.548" height="132.129"/>
<rect x="8.258" y="49.548" style="fill:#BFE4F8;" width="495.484" height="462.452"/>
<rect x="256" y="49.548" style="fill:#93C7EF;" width="247.742" height="462.452"/>
<path style="fill:#78B9EB;" d="M8.258,49.548v99.097h495.484V49.548H8.258z"/>
<path style="fill:#5A8BB0;" d="M256,49.548v99.097h247.742V49.548H256z"/>
<path style="fill:#3C5D76;" d="M279.445,330.323c0-50.685,36.862-92.75,85.238-100.871c-23.025-19.486-52.779-31.258-85.238-31.258
	c-72.859,0-132.129,59.271-132.129,132.129s59.27,132.129,132.129,132.129c32.458,0,62.213-11.771,85.238-31.258
	C316.309,423.072,279.445,381.007,279.445,330.323z"/>
<path style="fill:#1E2E3B;" d="M279.445,330.323c0-50.685,36.862-92.75,85.238-100.871c-23.025-19.486-52.779-31.258-85.238-31.258
	c-8.004,0-15.831,0.755-23.445,2.126v260.007c7.616,1.371,15.441,2.126,23.445,2.126c32.458,0,62.213-11.771,85.238-31.258
	C316.309,423.072,279.445,381.007,279.445,330.323z"/>
</svg>